<svg width="21" height="16" viewBox="0 0 21 16" fill="none" xmlns="http://www.w3.org/2000/svg">
<path fill-rule="evenodd" clip-rule="evenodd" d="M3.77832 0C2.12147 0 0.77832 1.34315 0.77832 3V5C0.77832 5.55228 1.25284 5.97928 1.73729 6.2445C2.35765 6.5841 2.77832 7.2429 2.77832 8C2.77832 8.7571 2.35765 9.4159 1.73729 9.7555C1.25284 10.0207 0.77832 10.4477 0.77832 11V13C0.77832 14.6569 2.12147 16 3.77832 16H17.7783C19.4352 16 20.7783 14.6569 20.7783 13V11C20.7783 10.4477 20.3038 10.0207 19.8193 9.7555C19.199 9.4159 18.7783 8.7571 18.7783 8C18.7783 7.2429 19.199 6.5841 19.8193 6.2445C20.3038 5.97928 20.7783 5.55228 20.7783 5V3C20.7783 1.34315 19.4352 0 17.7783 0H3.77832ZM11.7228 4.71739C11.4115 3.82183 10.145 3.82183 9.83372 4.71739L9.59602 5.40107C9.45872 5.79614 9.09002 6.064 8.67186 6.0725L7.9482 6.0873C7.00028 6.1066 6.6089 7.3111 7.36443 7.8839L7.94121 8.3212C8.27451 8.5739 8.41534 9.0073 8.29422 9.4077L8.08462 10.1005C7.81007 11.008 8.83472 11.7524 9.61292 11.2109L10.2071 10.7975C10.5504 10.5586 11.0061 10.5586 11.3494 10.7975L11.9435 11.2109C12.7218 11.7524 13.7464 11.008 13.4719 10.1005L13.2623 9.4077C13.1412 9.0073 13.282 8.5739 13.6153 8.3212L14.1921 7.8839C14.9476 7.3111 14.5562 6.1066 13.6083 6.0873L12.8846 6.0725C12.4665 6.064 12.0978 5.79614 11.9605 5.40107L11.7228 4.71739Z" fill="white"/>
</svg>
